<?xml version="1.0" encoding="UTF-8" standalone="no"?>
<svg id="logo" version="1.1" x="0px" y="0px" viewBox="0 0 32 32" style="enable-background:new 0 0 32 32;" xml:space="preserve" sodipodi:docname="loading.svg" inkscape:version="1.2.2 (732a01da63, 2022-12-09)"
	xmlns:inkscape="http://www.inkscape.org/namespaces/inkscape"
	xmlns:sodipodi="http://sodipodi.sourceforge.net/DTD/sodipodi-0.dtd"
	xmlns="http://www.w3.org/2000/svg"
	xmlns:svg="http://www.w3.org/2000/svg">
	<defs id="defs6" />
	<sodipodi:namedview id="namedview4" pagecolor="#ffffff" bordercolor="#000000" borderopacity="0.25" inkscape:showpageshadow="2" inkscape:pageopacity="0.0" inkscape:pagecheckerboard="0" inkscape:deskcolor="#d1d1d1" showgrid="false" inkscape:zoom="22.693708" inkscape:cx="17.361641" inkscape:cy="15.356679" inkscape:window-width="2184" inkscape:window-height="1637" inkscape:window-x="51" inkscape:window-y="244" inkscape:window-maximized="0" inkscape:current-layer="logo" />
	<path style="fill:none;fill-opacity:0;stroke:#ffffff;stroke-width:0.6;stroke-opacity:0.74152476" d="M 21.35,15.922 18.416,12.66 c -0.163,-0.195 -0.389,-0.301 -0.629,-0.301 h -3.574 c -0.24,0 -0.466,0.106 -0.62,0.291 l -2.944,3.272 1.351,0.676 1.839,-0.919 c 0.102,-0.051 0.221,-0.051 0.322,0 L 16,16.598 17.839,15.679 c 0.102,-0.051 0.221,-0.051 0.322,0 L 20,16.598 Z" id="path951" />
	<path style="fill:none;fill-opacity:0;stroke:#ffffff;stroke-width:0.6;stroke-opacity:0.54237288" d="m 8.495,17.242 4.554,-5.062 c 0.294922,-0.32782 0.736865,-0.519522 1.164,-0.539 1.179016,-0.05377 2.450037,0.0062 3.574,0 0.431701,-0.0024 0.869087,0.211185 1.173,0.549 l 4.545,5.052 C 24.237,15.95 24.64,14.499 24.64,13 24.64,8.236 20.764,4.36 16,4.36 11.236,4.36 7.36,8.236 7.36,13 c 0,1.499 0.404,2.949 1.135,4.242 z" id="path949" sodipodi:nodetypes="ccssscsssc" />
	<path style="fill:none;fill-opacity:0;stroke:#534a42;stroke-width:0.6;stroke-opacity:0.74152476" d="M 30.329,25.146 C 30.27,25.276 30.142,25.36 30,25.36 h -9 c -0.199,0 -0.36,-0.161 -0.36,-0.36 0,-0.199 0.161,-0.36 0.36,-0.36 h 8.192 l -7.343,-8.162 -1.689,0.845 c -0.05,0.025 -0.105,0.037 -0.16,0.037 -0.055,0 -0.11,-0.013 -0.161,-0.038 L 18,16.402 l -1.839,0.92 c -0.102,0.051 -0.221,0.051 -0.322,0 L 14,16.402 l -1.839,0.92 c -0.102,0.051 -0.221,0.051 -0.322,0 L 10.151,16.477 2.808,24.64 H 10 c 0.199,0 0.36,0.161 0.36,0.36 0,0.199 -0.161,0.36 -0.36,0.36 H 2 C 1.858,25.36 1.729,25.276 1.671,25.146 1.613,25.016 1.637,24.865 1.732,24.758 L 7.986,17.807 C 7.114,16.357 6.64,14.705 6.64,13 6.64,7.839 10.839,3.64 16,3.64 c 5.161,0 9.36,4.199 9.36,9.36 0,1.705 -0.474,3.356 -1.346,4.808 l 6.253,6.951 c 0.095,0.106 0.12,0.258 0.062,0.387 z" id="path947" />
	<path style="fill:none;fill-opacity:0;stroke:#eaeaea;stroke-width:0.6;stroke-opacity:0.74000001" d="M 26,26.64 H 6 c -0.199,0 -0.36,0.161 -0.36,0.36 0,0.199 0.161,0.36 0.36,0.36 h 20 c 0.199,0 0.36,-0.161 0.36,-0.36 0,-0.199 -0.161,-0.36 -0.36,-0.36 z" id="path945" />
	<path style="fill:none;fill-opacity:0;stroke:#f0f0f0;stroke-width:0.6;stroke-opacity:0.74152476" d="m 18.667,25.36 c 0.199,0 0.36,-0.161 0.36,-0.36 0,-0.199 -0.161,-0.36 -0.36,-0.36 H 13 c -0.199,0 -0.36,0.161 -0.36,0.36 0,0.199 0.161,0.36 0.36,0.36 z" id="path943" />
	<path style="fill:none;fill-opacity:0;stroke:#e4e4e4;stroke-width:0.6;stroke-opacity:0.74000001" d="m 24,28.64 h -5.667 c -0.199,0 -0.36,0.161 -0.36,0.36 0,0.199 0.161,0.36 0.36,0.36 H 24 c 0.199,0 0.36,-0.161 0.36,-0.36 0,-0.199 -0.161,-0.36 -0.36,-0.36 z" id="path941" />
	<path style="fill:none;fill-opacity:0;stroke:#e4e4e4;stroke-width:0.6;stroke-opacity:0.74152476" d="m 14.026,29 c 0,0.199 -0.161,0.36 -0.36,0.36 H 8 C 7.801,29.36 7.64,29.199 7.64,29 7.64,28.801 7.801,28.64 8,28.64 h 5.667 c 0.198,0 0.359,0.161 0.359,0.36 z" id="tokyo--volcano_1_" />
</svg>
